<?xml version="1.0" encoding="utf-8"?>
<!-- Generator: Adobe Illustrator 21.1.0, SVG Export Plug-In . SVG Version: 6.00 Build 0)  -->
<svg version="1.1" id="Calque_1" xmlns="http://www.w3.org/2000/svg" xmlns:xlink="http://www.w3.org/1999/xlink" x="0px" y="0px"
	 viewBox="0 0 512 512" style="enable-background:new 0 0 512 512;" xml:space="preserve">
<style type="text/css">
	.st0{fill:#FFFFFF;}
	.st1{fill:#161616;}
	.st2{fill:#DA4D76;}
	.st3{fill:#D53B67;}
	.st4{fill:#F6C6A4;}
	.st5{fill:#E68C59;}
</style>
<g>
	<g>
		<path class="st0" d="M400.2,350.2c-24.2-29.4-42-56-34.2-73c5.7-12.5,60.3-19.1,50.3-40c-3.1-6.4-10.8-10.2-15.8-8.7
			c-6.9,2.1-40.2,15.8-39.6,0.2c1.3-33.5,5.6-70-6.2-99.1C338.7,90,310,60.1,249.4,60.1S160.1,90,144.1,129.7
			c-11.8,29.1-7.5,65.5-6.2,99.1c0.6,15.6-32.8,1.8-39.6-0.2c-5-1.5-12.8,2.3-15.8,8.7c-10,20.9,44.6,27.6,50.3,40
			c7.8,17-10,43.6-34.2,73c-20,24.3-59.8,26.8-59.8,34.2c0,7.7,37.5,23.4,52.3,22.6c13.1-0.7,6.8,24,10.8,28
			c4.1,4.1,34-3.7,56.1,0.6s55.7,40.9,91.5,40.9s69.4-36.6,91.5-40.9s52,3.5,56.1-0.6c4-4-2.3-28.7,10.8-28
			c14.7,0.7,52.3-14.9,52.3-22.6C460,377,420.2,374.4,400.2,350.2z"/>
		<path class="st1" d="M249.4,60.1c60.6,0,89.3,29.9,105.3,69.5c11.8,29.1,7.5,65.5,6.2,99.1c-0.2,5.5,3.8,7.4,9.4,7.4
			c10.2,0,25.8-6.2,30.2-7.6c0.7-0.2,1.5-0.3,2.4-0.3c4.8,0,10.9,3.6,13.5,9c10,20.9-44.6,27.6-50.3,40c-7.8,17,10,43.6,34.2,73
			c20,24.3,59.8,26.8,59.8,34.2c0,7.5-35.8,22.6-51.2,22.6c-0.4,0-0.7,0-1,0c-0.2,0-0.3,0-0.5,0c-12.4,0-6.3,24.1-10.3,28
			c-0.9,0.9-3.1,1.2-6.2,1.2c-7.6,0-20.7-2-33.8-2c-5.5,0-11,0.3-16.1,1.3c-22.1,4.3-55.7,40.9-91.5,40.9s-69.4-36.6-91.5-40.9
			c-5.1-1-10.6-1.3-16.1-1.3c-13.1,0-26.2,2-33.8,2c-3.1,0-5.3-0.3-6.2-1.2c-3.9-3.9,2.2-28-10.3-28c-0.2,0-0.3,0-0.5,0
			c-0.3,0-0.7,0-1,0c-15.4,0-51.2-15.1-51.2-22.6c0-7.4,39.8-9.9,59.8-34.2c24.2-29.4,42-56,34.2-73c-5.7-12.5-60.3-19.1-50.3-40
			c2.6-5.4,8.6-9,13.5-9c0.8,0,1.6,0.1,2.4,0.3c4.4,1.3,20,7.6,30.2,7.6c5.6,0,9.6-1.9,9.4-7.4c-1.3-33.5-5.6-70,6.2-99.1
			C160.1,90,188.8,60.1,249.4,60.1 M249.4,52.4c-55.5,0-92.3,24.3-112.5,74.4c-10.6,26.2-9,56.9-7.5,86.6c0.3,5,0.5,10,0.7,14.9
			c-0.4,0.1-0.9,0.1-1.6,0.1c-7,0-18.1-3.9-24-5.9c-1.7-0.6-3.1-1.1-4-1.3c-1.5-0.4-3-0.7-4.6-0.7c-8.1,0-16.7,5.6-20.4,13.4
			c-2.3,4.8-2.6,9.9-0.8,14.5c4.3,11.1,18.9,17.1,33.1,23c6.6,2.7,16.5,6.8,18.1,9.3c7.2,15.7-22.2,51.3-33.2,64.7
			c-10.7,13-28.5,19.2-41.4,23.7c-11.7,4.1-20.2,7-20.2,15.5c0,16,45.4,30.4,59,30.4c0.4,0,0.8,0,1.2,0c0.9,2.1,1.1,7.8,1.2,10.6
			c0.2,6.2,0.4,11.5,3.9,15.1c3.1,3.1,7.6,3.5,11.7,3.5c3.6,0,8.1-0.4,13.2-0.8c6.3-0.5,13.5-1.2,20.6-1.2c5.7,0,10.5,0.4,14.6,1.2
			c7.3,1.4,17.5,8,28.4,14.9c19.1,12.2,40.7,26.1,64.6,26.1s45.5-13.9,64.6-26.1c10.8-6.9,21.1-13.5,28.4-14.9
			c4.1-0.8,8.9-1.2,14.6-1.2c7.1,0,14.3,0.6,20.6,1.2c5.1,0.4,9.6,0.8,13.2,0.8c4,0,8.6-0.4,11.7-3.5c3.6-3.6,3.7-8.9,3.9-15.1
			c0.1-2.9,0.3-8.6,1.2-10.6c0.4,0,0.8,0,1.2,0c13.6,0,59-14.4,59-30.4c0-8.4-8.5-11.4-20.2-15.5c-12.9-4.5-30.7-10.7-41.4-23.7
			c-11.1-13.4-40.4-49-33.1-64.8c1.6-2.3,11.5-6.4,18-9.1c14.2-5.9,28.8-11.9,33.1-23c1.8-4.6,1.5-9.7-0.8-14.5
			c-3.7-7.8-12.3-13.4-20.4-13.4c-1.6,0-3.2,0.2-4.6,0.7c-0.9,0.3-2.3,0.8-4,1.3c-6,2.1-17,5.9-24,5.9c-0.7,0-1.2,0-1.6-0.1
			c0.2-5.1,0.4-9.9,0.7-14.9c1.5-29.7,3.1-60.4-7.5-86.6C341.6,76.7,304.8,52.4,249.4,52.4L249.4,52.4z"/>
	</g>
	<path class="st1" d="M227.9,149.7c-2.2-4.1-17.8-19.6-29.7-19.6h-0.3c-12.2,0.2-27.4,20-28.6,22.1c-1.6,2.8-1.9,3.6-4.3,16.6
		c-0.1,0.7,0,1.4,0.4,1.9c0.4,0.6,1,1,1.7,1.1c1.5,0.3,2.8-0.7,3-2.1c2.4-12.6,2.5-12.9,3.7-14.9c1.4-2.3,15.2-19.3,24.3-19.5
		c0.1,0,0.1,0,0.2,0c9,0,23.3,13.5,25.2,16.9c1.9,3.5,4,13.1,2.7,16c-1.7,3.8-9.1,14.7-17.8,15.9c-0.6,0.1-1.1,0.1-1.7,0.1
		c-8.2,0-14.5-8.5-16-15.1c-1.6-6.9,6.8-14.6,10.6-16.2c0.4-0.2,2.1,0,4.6,1.7c3.5,2.4,6,6,6,8.4c-0.2,4.8-3.3,7.5-4.9,7.6
		c0,0-0.1,0-0.1,0c-1.2,0-4.3-2.5-6.3-4.7c0.1-0.7,1.2-2.9,2.8-3.9c0.1,0.1,0.4,0.4,0.8,1.1c0.5,0.8,0.8,2,0.8,2.5
		c0.1,0.7,0.4,1.3,1,1.8c0.5,0.4,1.2,0.6,1.8,0.5c1.4-0.1,2.4-1.4,2.3-2.8c-0.1-0.8-0.4-2.9-1.6-4.7c-1.2-2-2.6-3.2-4.1-3.5
		c-1.2-0.3-2.5,0-3.9,0.8c-2.3,1.4-4.6,4.8-5,7.4c-0.3,1.9,0.3,3.1,0.9,3.8c0.6,0.7,6,7,10.7,7c0.1,0,0.2,0,0.3,0
		c3.9-0.3,9.4-4.8,9.7-12.6c0.2-4.9-4-9.9-8.2-12.8c-2.1-1.4-6.1-3.6-9.5-2.2c-4.9,2.1-16,11.7-13.6,22.1
		c2.2,9.4,10.7,19.1,21.2,19.1c0.8,0,1.5-0.1,2.3-0.2c11.8-1.6,20.2-15.3,21.8-18.9C233.2,164.9,229.8,153.3,227.9,149.7z"/>
	<path class="st1" d="M326.6,152.1c-1.2-2.1-16.4-21.9-28.7-22.1h-0.3c-11.9,0-27.5,15.6-29.7,19.6c-1.9,3.6-5.3,15.2-2.9,20.6
		c1.6,3.6,10,17.2,21.8,18.9c0.8,0.1,1.5,0.2,2.3,0.2c10.5,0,19-9.7,21.2-19.1c2.4-10.4-8.8-20.1-13.6-22.1
		c-3.4-1.4-7.4,0.7-9.5,2.2c-4.2,2.9-8.4,7.9-8.2,12.8c0.3,7.8,5.8,12.3,9.7,12.6c0.1,0,0.2,0,0.2,0c4.7,0,10.1-6.3,10.7-7
		c0.6-0.7,1.2-1.9,0.8-3.8c-0.4-2.6-2.7-5.9-5-7.4c-1.3-0.8-2.6-1.1-3.9-0.8c-1.5,0.3-2.9,1.5-4.1,3.5c-1.1,1.8-1.5,3.9-1.6,4.7
		c-0.1,1.4,0.9,2.7,2.3,2.8c0.6,0.1,1.3-0.1,1.8-0.5c0.6-0.4,0.9-1.1,1-1.8c0.1-0.5,0.3-1.7,0.8-2.5c0.4-0.7,0.7-1,0.8-1.1
		c1.5,1.1,2.7,3.2,2.8,3.9c-1.9,2.2-5.1,4.7-6.3,4.7c0,0-0.1,0-0.1,0c-1.6-0.1-4.7-2.8-4.9-7.6c-0.1-2.4,2.5-6,6-8.4
		c2.4-1.7,4.2-1.9,4.6-1.7c3.8,1.6,12.2,9.3,10.6,16.2c-1.5,6.7-7.9,15.1-16,15.1c-0.6,0-1.1,0-1.7-0.1
		c-8.7-1.2-16.1-12.1-17.8-15.9c-1.3-2.9,0.8-12.5,2.7-16c1.9-3.4,16.2-16.9,25.2-16.9c0.1,0,0.1,0,0.2,0
		c9.1,0.2,22.9,17.2,24.3,19.5c1.2,2,1.4,2.4,3.7,14.9c0.2,1.2,1.3,2.1,2.6,2.1c0.2,0,0.3,0,0.4,0c0.7-0.1,1.3-0.5,1.7-1.1
		c0.4-0.6,0.5-1.3,0.4-1.9C328.6,155.7,328.3,155,326.6,152.1z"/>
	<g>
		<path class="st2" d="M199.2,206.9c11.5-10.5,34.2,2.4,51.2,4s20.5-9.6,36.4-7.6c15.9,2,22.6,20.8,18.9,37
			c-3.8,16.2-13.1,42.8-36.2,27.2s-19.1-21.3-37.6-25.3c-18.6-4-25.2,0.3-31.2,0.8C191.8,238.1,187.6,217.4,199.2,206.9z"/>
		<path class="st3" d="M282.4,274.5c-4.4,0-9.2-1.7-14.2-5.1c-9.6-6.5-14.7-11.4-18.4-15c-5.4-5.2-8.1-7.8-18.4-10
			c-13.5-2.9-20.5-1.3-25.5-0.1c-1.8,0.4-3.5,0.8-5.1,1l-0.7,0.1l-0.6-0.3c-4.8-2.7-8.5-9.4-9.4-17.1c-1-9,1.7-17.3,7.6-22.6
			c8.7-7.9,22.4-4.1,35.6-0.4c5.9,1.7,12,3.4,17.3,3.9c7.9,0.8,12.5-1.5,17.5-3.8c5.1-2.4,10.5-4.9,19-3.9c6.5,0.8,12,4.2,16,9.9
			c5.4,7.8,7.3,19.3,4.8,29.9c-4.2,18.2-10.8,29.2-19.4,32.6C286.5,274.1,284.5,274.5,282.4,274.5z M217.5,238.2
			c4,0,8.8,0.5,14.8,1.8c11.6,2.5,15,5.8,20.6,11.2c3.8,3.7,8.5,8.2,17.8,14.5c6.1,4.1,11.5,5.3,16,3.5c7.1-2.8,12.8-12.9,16.7-29.4
			c2.2-9.4,0.6-19.5-4.1-26.3c-3.2-4.6-7.6-7.3-12.8-8c-7.2-0.9-11.5,1.1-16.5,3.5c-5,2.4-10.7,5.1-19.8,4.2c-5.7-0.5-12-2.3-18.1-4
			c-12-3.4-24.5-6.8-31.3-0.6l0,0c-4.8,4.4-7.1,11.2-6.2,18.8c0.7,5.9,3.3,11.1,6.5,13.3c1.2-0.2,2.4-0.5,3.7-0.8
			C208,239.1,211.9,238.2,217.5,238.2z"/>
	</g>
	<path class="st4" d="M131.1,136.6c-38.5,0-70.3-4.9-74.3-20.4c-2.7-10.5,4.9-26.4,88.5-55.5c1.8-0.6,3.9,0.3,4.5,2.2
		c0.6,1.9-0.3,3.9-2.2,4.5c-76.7,26.7-85.5,40.9-84,47c4.4,17,71.8,19.9,171.9,7.4c130.7-16.3,191.1-34.7,192.2-42.5
		c-1.3-7.3-58-12.6-86.3-10.8c-2,0.1-3.6-1.4-3.8-3.3c-0.1-2,1.4-3.6,3.3-3.8c0.9-0.1,90.5-2.1,93.7,16.7c0.2,1.4,0.2,3.6-1.6,6
		c-15.7,21.2-166.6,41-196.7,44.8C206.2,132.6,165.9,136.6,131.1,136.6z"/>
	<polygon class="st5" points="437.7,128 436.3,154.9 457.6,171.4 431.5,178.3 422.5,203.7 407.8,181 380.9,180.2 397.9,159.3 
		390.3,133.5 415.5,143.2 	"/>
	<path class="st4" d="M417.9,134.2c-44.6,0-106.6-4.7-163.4-11.3c-31.4-3.6-187.8-23.6-187.8-60.1c0-17.5,38.3-29.6,110.7-35.1
		c1.8-0.1,3.7,1.3,3.8,3.3c0.1,2-1.3,3.7-3.3,3.8C76.7,42.5,73.8,60.8,73.8,62.8c0,18.2,78.1,41,181.6,53
		c123,14.2,213.9,13.9,218.6,4.7c-0.4-8.1-63.7-32.1-88.4-36.4c-1.9-0.3-3.2-2.2-2.9-4.1c0.3-1.9,2.2-3.2,4.1-2.9
		c10.8,1.9,95.9,26,94.2,44.2c-0.1,1.4-0.7,3.3-3,5.2C471.3,132,448.8,134.2,417.9,134.2z"/>
	<polygon class="st5" points="55.6,31.3 68.1,44.8 86.3,42.1 77.4,58.1 85.6,74.6 67.6,71.1 54.4,83.9 52.2,65.7 35.9,57.2 
		52.6,49.4 	"/>
</g>
</svg>
